PathFileType	4	(X/Y/Z)	./resultDataOpenSim/trcMotMarkerGrf/sub09/qtm-14-07.trc
DataRate	CameraRate	NumFrames	NumMarkers	Units	OrigDataRate	OrigDataStartFrame	OrigNumFrames
250.000000	250.000000	13	24	m	250.000000	1	485
Frame#	Time	L.Toe.Tip			R.Toe.Tip			L.Ankle.Lat			R.Ankle.Lat			L.Ankle.Med			R.Ankle.Med			L.Heel			R.Heel			L.Knee.Lat			R.Knee.Lat			L.Knee.Med			R.Knee.Med			L.Thigh.Upper			R.Thigh.Upper			L.ASIS			R.ASIS			V.Sacral			L.Acromium			R.Acromium			C7			L.Elbow			R.Elbow			L.Wrist.Lat			R.Wrist.Lat
		X1	Y1	Z1	X2	Y2	Z2	X3	Y3	Z3	X4	Y4	Z4	X5	Y5	Z5	X6	Y6	Z6	X7	Y7	Z7	X8	Y8	Z8	X9	Y9	Z9	X10	Y10	Z10	X11	Y11	Z11	X12	Y12	Z12	X13	Y13	Z13	X14	Y14	Z14	X15	Y15	Z15	X16	Y16	Z16	X17	Y17	Z17	X18	Y18	Z18	X19	Y19	Z19	X20	Y20	Z20	X21	Y21	Z21	X22	Y22	Z22	X23	Y23	Z23	X24	Y24	Z24

1	0	-1.519536	0.036459718	-0.037371265	-0.90016843	0.093167749	0.11200651	-1.6659335	0.081460239	-0.071987673	-1.0518455	0.071582828	0.12653578	-1.6450133	0.096717692	0.02399155	-1.0383727	0.11256555	0.037734731	NaN	NaN	NaN	-1.0983299	0.032738172	0.065694097	-1.5017777	0.46701216	-0.13016376	-1.1490857	0.52020653	0.17094402	-1.506669	0.4696775	-0.0041237932	-1.1354919	0.5036273	0.044878271	-1.3742063	0.86816032	-0.17155361	-1.3574515	0.86658594	0.19980009	-1.268761	0.93968123	-0.11468917	-1.2743509	0.94784327	0.12671793	-1.4334681	1.0083618	0.007710331	-1.2283606	1.3931289	-0.14625766	-1.2803813	1.4018211	0.17865954	-1.3169691	1.4540722	0.0093424992	-1.3366518	1.0319288	-0.22956854	-1.4479467	1.0781568	0.25277047	-1.091396	0.9173499	-0.18246344	-1.3487866	0.82605286	0.28714056
2	0.004	-1.5194413	0.036388344	-0.037405273	-0.88372828	0.09787053	0.11316756	-1.6655755	0.082422062	-0.071980153	-1.0348457	0.072207245	0.12748556	-1.6438243	0.097661407	0.023726834	-1.0222852	0.11351719	0.038666953	NaN	NaN	NaN	-1.0801081	0.03205666	0.067224945	-1.4986695	0.46693223	-0.13023695	-1.1426522	0.51863822	0.17102787	-1.5034162	0.46965061	-0.0040973321	-1.1285637	0.50215047	0.04505533	-1.3684923	0.86697762	-0.1711546	-1.3507459	0.86492855	0.20002068	-1.2624711	0.93818776	-0.11462373	-1.2676733	0.9462371	0.12679518	-1.4268444	1.0068851	0.008257836	-1.2220873	1.3917109	-0.14576388	-1.2743114	1.4002453	0.17910924	-1.3106974	1.452653	0.010059663	-1.3294959	1.0301826	-0.22914975	-1.4403492	1.0766108	0.2537148	-1.0836812	0.91700595	-0.18157292	-1.3434988	0.82429566	0.28750421
3	0.008	-1.5193422	0.036316655	-0.037446145	-0.86758274	0.10261301	0.1143291	-1.6651778	0.083439399	-0.072004675	-1.0180254	0.072970298	0.12844065	-1.6426045	0.098639652	0.023409514	-1.0064291	0.11452949	0.03960525	NaN	NaN	NaN	-1.0621047	0.031489871	0.068782445	-1.4954395	0.46685312	-0.13028432	-1.136107	0.5170961	0.17116226	-1.500105	0.46958931	-0.0040409038	-1.1217001	0.50064267	0.045188566	-1.3627653	0.86580226	-0.17076167	-1.3440619	0.86324598	0.20024737	-1.2563149	0.93669492	-0.11463353	-1.26097	0.94464169	0.12686073	-1.4203366	1.0054189	0.008681371	-1.215801	1.3903097	-0.14528447	-1.2682104	1.3986808	0.17957088	-1.3042154	1.4513074	0.011294605	-1.3223371	1.0284597	-0.22872881	-1.4332125	1.0751438	0.25414268	-1.0759689	0.916632	-0.18067062	-1.3381381	0.82255397	0.28787581
4	0.012	-1.5192359	0.036247554	-0.037496653	-0.85191197	0.10738404	0.11545601	-1.664711	0.084532413	-0.072087783	-1.0012435	0.074065675	0.12948799	-1.6413293	0.099685218	0.023012749	-0.99092273	0.11563964	0.040547019	NaN	NaN	NaN	-1.0444809	0.031116964	0.070297639	-1.4920002	0.46676432	-0.13030039	-1.1294568	0.51557537	0.1713549	-1.4966627	0.46949998	-0.0039479649	-1.1149294	0.49909748	0.045267844	-1.3569991	0.86464337	-0.17039032	-1.3373432	0.8615413	0.20048815	-1.2502375	0.9352217	-0.11469465	-1.2542224	0.94305976	0.12691781	-1.4139734	1.0039572	0.0089082703	-1.2094793	1.3889364	-0.1448091	-1.2620503	1.3971297	0.18005214	-1.2975361	1.4500345	0.01296019	-1.3151599	1.0267722	-0.22829145	-1.4268477	1.0737348	0.25382057	-1.0682775	0.91620007	-0.17976832	-1.3326939	0.82083496	0.28825418
5	0.016	-1.5191224	0.036185908	-0.03755691	-0.83679544	0.11210991	0.11649869	-1.6641652	0.085692727	-0.072239046	-0.98429777	0.075630274	0.13072434	-1.6400276	0.10080177	0.0225487	-0.97581857	0.11685017	0.041482373	NaN	NaN	NaN	-1.0273807	0.030956802	0.071693502	-1.4883256	0.46665337	-0.13029159	-1.1227767	0.51406345	0.17158023	-1.493052	0.4694085	-0.0038308319	-1.1082492	0.49753527	0.045317601	-1.3511829	0.86350934	-0.17003885	-1.3305359	0.85983783	0.20074603	-1.2441321	0.93379302	-0.11474853	-1.2474328	0.94149883	0.12698493	-1.4077345	1.0024747	0.0090027837	-1.2031047	1.3876004	-0.14431461	-1.255831	1.3955952	0.18055116	-1.2908701	1.4487736	0.014490799	-1.3079648	1.0251298	-0.22782299	-1.4210182	1.0723195	0.25310664	-1.0606406	0.91569483	-0.17888233	-1.3271961	0.81914596	0.28863412
6	0.02	-1.5190002	0.036136239	-0.037625775	-0.82223371	0.11669337	0.11743861	-1.6635452	0.086919016	-0.0724531	-0.96743837	0.077522857	0.13209088	-1.638759	0.10196563	0.022055277	-0.96113098	0.11814344	0.042402391	NaN	NaN	NaN	-1.0109172	0.03098362	0.072958809	-1.4844263	0.46651565	-0.13025563	-1.1161057	0.51256094	0.17181674	-1.4892229	0.46932195	-0.003715255	-1.1016303	0.49598198	0.045370108	-1.3453167	0.86240401	-0.16968251	-1.3236346	0.85815515	0.20102168	-1.2379632	0.9324205	-0.11477868	-1.2406029	0.93997391	0.12707681	-1.4015644	1.0009349	0.0091942884	-1.1966663	1.3863043	-0.14379046	-1.2495613	1.3940876	0.18106665	-1.2843598	1.4474825	0.015521903	-1.3007634	1.0235417	-0.22732983	-1.4151931	1.0708715	0.25254051	-1.053068	0.91511249	-0.17801599	-1.3216518	0.81749439	0.28901572
7	0.024	-1.5188643	0.036102049	-0.037699803	-0.80820741	0.12104274	0.11829658	-1.6628584	0.088216598	-0.072724009	-0.95134917	0.079363497	0.1333726	-1.6375633	0.10315443	0.021575744	-0.94690722	0.11948152	0.04329054	NaN	NaN	NaN	-0.99516519	0.031154375	0.074089725	-1.4803222	0.4663534	-0.13018621	-1.1094258	0.51108088	0.17206936	-1.4851019	0.46922157	-0.0036295905	-1.095042	0.49445872	0.045443818	-1.339401	0.86132908	-0.16930003	-1.3166386	0.85650363	0.20132061	-1.2317347	0.93110043	-0.11479504	-1.2337371	0.93849589	0.12718737	-1.3953578	0.99934235	0.0096745372	-1.1901837	1.385042	-0.14324668	-1.2432368	1.3926151	0.18159742	-1.2779705	1.4461755	0.016156317	-1.2935654	1.0220065	-0.22682004	-1.4091152	1.0694075	0.25229964	-1.0455541	0.9144543	-0.17717036	-1.3160546	0.81588335	0.28940487
8	0.028	-1.5187106	0.036085487	-0.037774265	-0.79471621	0.12509881	0.11910342	-1.6621078	0.089585985	-0.07304998	-0.93648354	0.080884487	0.13440805	-1.6364542	0.10435973	0.021135995	-0.93329502	0.12079022	0.044111175	NaN	NaN	NaN	-0.98014389	0.031423946	0.075052934	-1.476035	0.46616651	-0.130095	-1.1026898	0.50964265	0.17235739	-1.480698	0.46908327	-0.0035769613	-1.0884649	0.4929817	0.04554405	-1.3334299	0.86028504	-0.16888556	-1.3095274	0.85488851	0.20164716	-1.2254469	0.92982542	-0.11480085	-1.2268437	0.93706738	0.12729742	-1.3890024	0.99776557	0.010389982	-1.1837002	1.3838071	-0.1427036	-1.2368484	1.3911773	0.18213355	-1.2716018	1.4448867	0.01665319	-1.28637	1.0205132	-0.22627204	-1.4028148	1.067961	0.25228252	-1.0380951	0.913724	-0.17634762	-1.3104049	0.81431096	0.28980603
9	0.032	-1.5185398	0.0360856	-0.037847266	-0.78179131	0.12884817	0.11984632	-1.6612894	0.091031005	-0.073430688	-0.92275357	0.08209003	0.13519887	-1.6354112	0.10558545	0.020725465	-0.92043551	0.12198856	0.044825712	NaN	NaN	NaN	-0.96579333	0.031763651	0.075826059	-1.4715903	0.46594891	-0.13001284	-1.0958556	0.50827198	0.17269541	-1.47608	0.46890066	-0.0035335732	-1.0818845	0.4915634	0.045675478	-1.3273923	0.85927314	-0.16844268	-1.3022933	0.85331527	0.20199963	-1.2190962	0.92859783	-0.11479423	-1.2199204	0.93568921	0.12739505	-1.3824492	0.99627208	0.011169961	-1.1772416	1.3825998	-0.14217543	-1.2304049	1.3897736	0.18266535	-1.2651928	1.4436321	0.01716539	-1.2791744	1.0190625	-0.22566587	-1.3963923	1.0665616	0.25235973	-1.0306879	0.91292467	-0.17554413	-1.3047038	0.81277348	0.29021554
10	0.036	-1.5183539	0.036097809	-0.037922837	-0.76948392	0.13229264	0.12046015	-1.6603905	0.092556656	-0.073870209	-0.90986707	0.083085674	0.13581083	-1.6343837	0.10684928	0.020308677	-0.90828898	0.12304963	0.045421261	NaN	NaN	NaN	-0.95198128	0.032179366	0.076401316	-1.4670032	0.465704	-0.1299749	-1.0889036	0.50699143	0.17309071	-1.471256	0.46867562	-0.0034752577	-1.0752762	0.49021582	0.045849832	-1.3212739	0.85829544	-0.16797604	-1.2949491	0.85178989	0.20237579	-1.2126752	0.92742378	-0.11478287	-1.2129525	0.93436389	0.12748816	-1.375717	0.99488625	0.011942364	-1.1707946	1.381425	-0.14165758	-1.2239264	1.3884084	0.18319515	-1.2587352	1.442411	0.017728684	-1.2719824	1.0176682	-0.22501534	-1.3899194	1.0652163	0.25244927	-1.0233269	0.91205702	-0.1747513	-1.2989552	0.81127015	0.29062361
11	0.04	-1.5181503	0.03611781	-0.038008146	-0.75783854	0.13540033	0.12090215	-1.6593978	0.094161396	-0.074374314	-0.89765628	0.083918064	0.13627917	-1.633331	0.10817481	0.019851148	-0.89671204	0.12398984	0.045903843	NaN	NaN	NaN	-0.93861147	0.032679898	0.076742015	-1.4622654	0.46544996	-0.13000025	-1.0818288	0.50580382	0.1735416	-1.4662024	0.4683956	-0.0033946061	-1.0685965	0.48895887	0.046078573	-1.3150624	0.85735292	-0.16748905	-1.2875078	0.8503163	0.20277415	-1.2061702	0.92630655	-0.11477546	-1.2059276	0.93309728	0.12759717	-1.3688733	0.99360058	0.012716708	-1.1643275	1.3802923	-0.14113318	-1.2174263	1.3870871	0.18373207	-1.2522425	1.4412245	0.018332836	-1.2647969	1.0163365	-0.22433543	-1.3834206	1.0639139	0.25252174	-1.0160116	0.91112317	-0.17396406	-1.2931653	0.80980593	0.29102018
12	0.044	-1.5179239	0.036144151	-0.038107513	-0.74688322	0.13809819	0.12119696	-1.6583105	0.095840684	-0.074939117	-0.88611017	0.084561025	0.13660742	-1.6322365	0.10957616	0.019331361	-0.88564944	0.12480627	0.046272126	NaN	NaN	NaN	-0.9257953	0.033175941	0.076832717	-1.4573564	0.46519713	-0.13007152	-1.0746085	0.50469816	0.17403604	-1.4609397	0.46804575	-0.0033096389	-1.0617917	0.48782332	0.046358725	-1.3087496	0.85644438	-0.16698268	-1.2799874	0.84889478	0.20319323	-1.1995702	0.92524917	-0.11476181	-1.1988482	0.93189633	0.12773331	-1.3620138	0.99238048	0.013494898	-1.1578252	1.3792141	-0.14059076	-1.2109009	1.3858117	0.18428158	-1.2457247	1.4400769	0.018967224	-1.2576178	1.0150627	-0.22362554	-1.3768854	1.0626451	0.25259057	-1.0087486	0.91012896	-0.17318561	-1.287333	0.80838723	0.29139925
13	0.048	-1.5176732	0.03617633	-0.038220708	-0.73663965	0.14030729	0.12140181	-1.6571388	0.097590253	-0.075553835	-0.87528496	0.084958281	0.13678973	-1.6310834	0.11105554	0.01874578	-0.8751523	0.1254584	0.046516327	NaN	NaN	NaN	-0.91386467	0.033449591	0.076759471	-1.4522685	0.46493553	-0.13014766	-1.067201	0.50367483	0.17455565	-1.4554937	0.46763657	-0.0032550623	-1.0548097	0.48683644	0.046671809	-1.3023287	0.8555651	-0.16645039	-1.2724143	0.84752819	0.20363498	-1.1928777	0.92424891	-0.11471264	-1.1917287	0.93076075	0.12789291	-1.3551995	0.99118575	0.01427135	-1.1513021	1.3781961	-0.14003001	-1.2043324	1.3845781	0.18484291	-1.2391849	1.4389629	0.019622462	-1.2504473	1.0138447	-0.22289105	-1.3702903	1.0614128	0.25269395	-1.001543	0.90908014	-0.17242332	-1.2814453	0.80701765	0.29176205
